<svg width="45" height="44" viewBox="0 0 45 44" fill="none" xmlns="http://www.w3.org/2000/svg">
<circle cx="22.4746" cy="22" r="22" fill="#21C6DE"/>
<path d="M22.4749 37.6663C15.0656 36.0197 9.1416 29.029 9.1416 21.6663V13.6663L22.4749 8.33301L35.8083 13.6663V21.6663C35.8083 29.0317 29.8843 36.0197 22.4749 37.6663ZM11.8083 14.9997V21.6663C11.8845 24.7492 12.9688 27.7221 14.8952 30.1302C16.8216 32.5382 19.484 34.2486 22.4749 34.9997C25.4659 34.2486 28.1283 32.5382 30.0547 30.1302C31.9811 27.7221 33.0654 24.7492 33.1416 21.6663V14.9997L22.4749 10.9997L11.8083 14.9997Z" fill="#00102A"/>
<path d="M22.4749 21.6667C24.3159 21.6667 25.8083 20.1743 25.8083 18.3333C25.8083 16.4924 24.3159 15 22.4749 15C20.634 15 19.1416 16.4924 19.1416 18.3333C19.1416 20.1743 20.634 21.6667 22.4749 21.6667Z" fill="#00102A"/>
<path d="M15.8076 27C16.4648 28.1976 17.4284 29.1991 18.5998 29.9019C19.7712 30.6048 21.1083 30.9837 22.4743 31C23.8403 30.9837 25.1774 30.6048 26.3488 29.9019C27.5202 29.1991 28.4838 28.1976 29.1409 27C29.1076 24.472 24.6849 23 22.4743 23C20.2516 23 15.841 24.472 15.8076 27Z" fill="#00102A"/>
</svg>
