  <svg
      xmlns="http://www.w3.org/2000/svg"
      width="160"
      height="119"
      fill="none"
      viewBox="0 0 160 119"
    >
      <path
        fill="#fff"
        d="M160 104.575H0v.08h160v-.08zM143.968 109.715H133.37v.08h10.598v-.08zM129.341 109.715h-22.659v.08h22.659v-.08zM94.186 106.751h-6.141v.079h6.14v-.079zM27.76 107.287H16.787v.08H27.76v-.08zM50.56 107.287H30.608v.08H50.56v-.08zM72.045 108.635h-11.78v.08h11.78v-.08zM75.84 90.33H14.051a1.829 1.829 0 01-1.824-1.824V1.808A1.822 1.822 0 0114.051 0h61.79a1.829 1.829 0 011.826 1.824v86.682a1.822 1.822 0 01-1.827 1.824zM14.051.064a1.749 1.749 0 00-1.744 1.744v86.698a1.742 1.742 0 001.744 1.744h61.79a1.752 1.752 0 001.746-1.744V1.808A1.746 1.746 0 0075.84.064H14.051zM145.059 90.33H83.267a1.831 1.831 0 01-1.827-1.824V1.808A1.825 1.825 0 0183.267 0h61.792a1.826 1.826 0 011.821 1.808v86.698a1.824 1.824 0 01-1.821 1.824zM83.267.064a1.752 1.752 0 00-1.747 1.744v86.698a1.746 1.746 0 001.747 1.744h61.792a1.747 1.747 0 001.747-1.744V1.808a1.748 1.748 0 00-1.747-1.744H83.267z"
      ></path>
      <path fill="#E6E6E6" d="M24.269 44.15h43.424V6.595H24.269v37.553z"></path>
      <path fill="#F5F5F5" d="M23.3 44.15h43.423V6.595H23.3v37.553z"></path>
      <path fill="#FAFAFA" d="M64.992 42.807V7.938H25.033v34.87h39.959z"></path>
      <path
        fill="#fff"
        d="M48.966 42.808l7.242-34.87H41.059l-7.238 34.87h15.145z"
      ></path>
      <path fill="#E6E6E6" d="M25.763 42.81V7.94h-.73v34.87h.73z"></path>
      <path fill="#F5F5F5" d="M24.016 36.557h41.99v-1.802h-41.99v1.802z"></path>
      <path
        fill="#F0F0F0"
        d="M65.677 102.675h6.934V72.66h-6.934v30.015zM20.394 104.575h50.89v-1.9h-50.89v1.9z"
      ></path>
      <path
        fill="#F5F5F5"
        d="M65.677 72.657H19.059v30.015h46.618V72.657z"
      ></path>
      <path
        fill="#F0F0F0"
        d="M62.954 76.352H21.786v9.844h41.168v-9.844zM62.954 89.135H21.786v9.844h41.168v-9.844z"
      ></path>
      <path
        fill="#F5F5F5"
        d="M31.274 81.948h22.192a.679.679 0 00.675-.674.68.68 0 00-.675-.677H31.274a.682.682 0 00-.676.677.676.676 0 00.676.674zM31.274 94.731h22.192a.679.679 0 00.675-.674.676.676 0 00-.675-.677H31.274a.679.679 0 00-.676.677.676.676 0 00.676.674z"
      ></path>
      <path
        fill="#fff"
        d="M138.118 26.224c3.949-1.086 5.3-8.238-4.678-11.157 2.202 7.193-2.205 13.041 4.678 11.157z"
      ></path>
      <path
        fill="#E0E0E0"
        d="M138.992 29.328c3.114-3.357.17-10.952-11.043-7.848 6.342 5.539 5.619 13.703 11.043 7.848z"
      ></path>
      <path
        fill="#FAFAFA"
        d="M135.92 30.19c-2.605-2.574 1.127-11.533 9.728-7.38-4.873 4.66-5.168 11.869-9.728 7.38z"
      ></path>
      <path
        fill="#E6E6E6"
        d="M133.322 35.206h7.58l.573-5.12h-8.723l.57 5.12z"
      ></path>
      <path
        fill="#E6E6E6"
        d="M132.666 31.002h8.896a.566.566 0 100-1.13h-8.896a.566.566 0 100 1.13z"
      ></path>
      <path
        fill="#FAFAFA"
        d="M69.54 95.903v-8.672h7.234v-8.668h7.239V69.89h7.235v-8.673h7.238V52.55h7.236v-8.672h7.238v-8.672H160v69.369H62.3v-8.672h7.24z"
      ></path>
      <path
        fill="#E0E0E0"
        d="M109.341 95.903v-8.672h7.238v-8.668h7.236V69.89h7.238v-8.673h7.235V52.55h7.239v-8.672h7.235v-8.672H160v69.369h-57.894v-8.672h7.235z"
      ></path>
      <path
        fill="#fff"
        d="M102.106 95.903h-40.23v2.6h40.23v-2.6zM109.344 87.231h-40.23v2.6h40.23v-2.6zM116.579 78.563h-40.23v2.6h40.23v-2.6zM123.818 69.89h-40.23v2.6h40.23v-2.6zM131.053 61.218h-40.23v2.6h40.23v-2.6zM138.291 52.55h-40.23v2.6h40.23v-2.6zM145.526 43.878h-40.23v2.6h40.23v-2.6zM152.765 35.206h-40.231v2.6h40.231v-2.6z"
      ></path>
      <path
        fill="#F5F5F5"
        d="M80 119c34.266 0 62.045-1.619 62.045-3.616s-27.779-3.615-62.045-3.615c-34.267 0-62.045 1.618-62.045 3.615S45.734 119 80 119z"
      ></path>
      <path
        fill="#FFC3BD"
        d="M107.104 33.1a35.98 35.98 0 01-.294 2.747c-.125.91-.295 1.802-.487 2.696a29.933 29.933 0 01-1.616 5.293l-.291.639-.07.16-.026.083-.051.102c-.098.2-.222.387-.368.556a2.164 2.164 0 01-1.344.712c-.392.042-.787 0-1.162-.121a5.667 5.667 0 01-1.485-.767c-.397-.28-.776-.584-1.135-.91a26.205 26.205 0 01-3.617-4.13l1.06-.898c.64.591 1.28 1.188 1.92 1.754a25.45 25.45 0 001.99 1.597c.325.231.662.445 1.011.639.281.17.585.3.903.386.108.022.185 0 .15 0a.357.357 0 00-.202.093c-.019 0-.019 0 0 0l.103-.266.224-.58c.555-1.601.988-3.241 1.296-4.907.169-.837.288-1.69.416-2.536a43.76 43.76 0 00.291-2.527l2.784.186z"
      ></path>
      <path
        fill="#21C6DE"
        d="M105.165 29.584c-1.194.303-2.029 5.203-2.029 5.203l3.286 2.236s3.152-4.941 2.24-6.25c-.96-1.371-1.756-1.63-3.497-1.19z"
      ></path>
      <path
        fill="#21C6DE"
        d="M105.165 29.584c-1.194.303-2.029 5.203-2.029 5.203l3.286 2.236s3.152-4.941 2.24-6.25c-.96-1.371-1.756-1.63-3.497-1.19z"
      ></path>
      <path
        fill="#000"
        d="M105.165 29.584c-1.194.303-2.029 5.203-2.029 5.203l3.286 2.236s3.152-4.941 2.24-6.25c-.96-1.371-1.756-1.63-3.497-1.19z"
        opacity="0.4"
      ></path>
      <path
        fill="#000"
        d="M105.27 30.68l-.915 4.934 1.847 1.253-.932-6.187z"
        opacity="0.3"
      ></path>
      <path
        fill="#FFC3BD"
        d="M96.272 39.06l-1.552-2.465-.886 2.801s1.28 1.342 2.441 1.022l-.003-1.357zM92.416 35.78l-.614 2.383 2.019 1.233.886-2.801-2.29-.814zM111.616 112.034h-2.893l-.195-6.689h2.896l.192 6.689zM137.149 98.618l-2.205 1.872-5.046-4.497 2.205-1.869 5.046 4.494z"
      ></path>
      <path
        fill="#263238"
        d="M134.339 100.266l2.141-2.446a.23.23 0 01.301-.042l2.179 1.409a.463.463 0 01.083.687c-.761.84-1.171 1.207-2.112 2.28-.576.661-1.353 1.69-2.153 2.6-.8.911-1.748.176-1.495-.278 1.123-2.025.855-2.734.874-3.73a.757.757 0 01.182-.48zM108.624 111.701h3.251c.056 0 .11.02.153.056.042.037.07.087.078.142l.371 2.556a.461.461 0 01-.277.497.473.473 0 01-.2.036c-1.133-.019-1.68-.086-3.11-.086-.88 0-2.698.093-3.914.093-1.216 0-1.28-1.201-.771-1.307 2.265-.489 3.158-1.159 3.923-1.801a.754.754 0 01.496-.186z"
      ></path>
      <path
        fill="#000"
        d="M108.531 105.348l.099 3.447h2.893l-.099-3.447h-2.893zM132.106 94.124l-2.208 1.869 2.605 2.319 2.204-1.872-2.601-2.316z"
        opacity="0.2"
      ></path>
      <path
        fill="#21C6DE"
        d="M105.165 29.584s-1.379.485 1.382 17.433h11.751c-.196-4.775-.202-7.72 2.083-17.516a35.065 35.065 0 00-4.989-.658 37.649 37.649 0 00-5.338 0c-2.291.223-4.889.74-4.889.74z"
      ></path>
      <path
        fill="#000"
        d="M105.165 29.584s-1.379.485 1.382 17.433h11.751c-.196-4.775-.202-7.72 2.083-17.516a35.065 35.065 0 00-4.989-.658 37.649 37.649 0 00-5.338 0c-2.291.223-4.889.74-4.889.74z"
        opacity="0.4"
      ></path>
      <path
        fill="#fff"
        d="M115.392 28.843a37.649 37.649 0 00-5.338 0c-.288.025-.582.057-.873.093a1.417 1.417 0 00-.16 1.245c.374.93 1.725 1.038 2.71 1.038 3.639 0 4.253-2.12 4.279-2.21l.035-.128c-.205-.013-.435-.029-.653-.038z"
      ></path>
      <path
        fill="#FFC3BD"
        d="M114.88 22.848c-.339 1.712-.672 4.851.528 5.995 0 0-.47 1.74-3.661 1.74-3.52 0-1.677-1.737-1.677-1.737 1.92-.457 1.866-1.875 1.533-3.194l3.277-2.805z"
      ></path>
      <path
        fill="#000"
        d="M113.526 23.985l-1.939 1.65c.084.315.139.635.167.96.729-.106 1.734-.908 1.814-1.671a2.516 2.516 0 00-.042-.94z"
        opacity="0.2"
      ></path>
      <path
        fill="#263238"
        d="M112.867 13.527c-.297-1.006-.547-2.59 1.245-3.306-.701-.856-.87-2.466 0-3.42.87-.956 2.176-.604 2.176-.604s.384-2.335 3.229-1.917c2.845.418 1.577 2.287 1.577 2.287s3.882-.767 4.141 2.875c.259 3.641-1.968 3.194-1.968 3.194s1.731 1.45.771 3.044c-.96 1.594-3.177 1.044-3.177 1.044s-1.043 2.817-3.501 1.214c-2.458-1.603-4.493-4.411-4.493-4.411zM107.104 15.651c-.96 1.24-.538 2.642.32 3.194 2.064 1.316 5.05-4.203 4.272-4.864-.778-.662-3.632.428-4.592 1.67z"
      ></path>
      <path
        fill="#21C6DE"
        d="M115.773 12.7c-1.357-.546-2.733.025-3.162.85-1.046 2.008 3.706 5.627 5.082 3.117.816-1.492-.522-3.405-1.92-3.967z"
      ></path>
      <path
        fill="#FFC3BD"
        d="M115.2 18.845c.099 2.875.202 4.076-1.101 5.676-1.955 2.405-5.504 1.9-6.457-.878-.858-2.501-.874-6.765 1.811-8.164a3.922 3.922 0 015.208 1.474c.338.575.524 1.226.539 1.892z"
      ></path>
      <path
        fill="#263238"
        d="M114.768 20.35c-1.28-.476-1.6-1.968-1.395-2.556-.64-.025-2.039-.255-2.56-1.047-.999.639-3.107 1.277-3.335.214-.227-1.064 2.954-3.798 5.36-4.009 2.861-.249 5.684 2.555 4.957 5.242-.726 2.686-3.027 2.156-3.027 2.156zM106.56 47.017s-2.282 22.247-2.093 31.057c.199 9.16 3.562 30.053 3.562 30.053h3.91s-.617-20.36-.272-29.354c.378-9.809 3.498-31.756 3.498-31.756h-8.605z"
      ></path>
      <path
        fill="#21C6DE"
        d="M112.266 108.268h-4.589l-.339-1.46 5.142-.179-.214 1.639z"
      ></path>
      <path
        fill="#000"
        d="M111.616 52.553c-2.88 5.794-.579 16.366.442 20.302.521-5.91 1.404-13.131 2.092-18.434-.435-2.996-1.19-4.542-2.534-1.868z"
        opacity="0.2"
      ></path>
      <path
        fill="#263238"
        d="M109.651 47.017s2.663 23.129 4.672 30.555c2.387 8.816 17.213 20.682 17.213 20.682l3.008-2.555s-10.746-12.892-12.573-17.536c-3.894-9.902-.56-24.684-3.673-31.152l-8.647.006z"
      ></path>
      <path
        fill="#21C6DE"
        d="M135.024 95.568l-3.731 3.162-1.395-.834 4.221-3.919.905 1.59z"
      ></path>
      <path
        fill="#FFC3BD"
        d="M115.872 20.829c-.07.55-.355 1.049-.794 1.39-.585.446-1.148 0-1.216-.7-.057-.64.173-1.597.871-1.783a.964.964 0 011.102.636.958.958 0 01.037.457zM121.581 32.615a46.387 46.387 0 011.686 4.877c.499 1.67.855 3.38 1.063 5.111.054.44.07.904.089 1.36v.26c0 .092-.016.188-.029.271-.026.16-.063.318-.108.473a4.744 4.744 0 01-.32.77 11.24 11.24 0 01-1.62 2.264 27.744 27.744 0 01-3.84 3.491l-.924-1.025c1.065-1.242 2.14-2.517 3.052-3.833a10.34 10.34 0 001.12-1.916c.053-.131.095-.266.128-.403a.947.947 0 00.016-.182v-.045c-.041-.377-.07-.754-.14-1.14a35.044 35.044 0 00-1.149-4.66 92.614 92.614 0 00-1.6-4.61l2.576-1.063z"
      ></path>
      <path
        fill="#21C6DE"
        d="M120.381 29.5c1.177.359 2.592 4.406 2.592 4.406l-4.573 3.258s-1.667-3.377-1.171-4.897c.531-1.581 1.811-3.175 3.152-2.766z"
      ></path>
      <path
        fill="#000"
        d="M120.381 29.5c1.177.359 2.592 4.406 2.592 4.406l-4.573 3.258s-1.667-3.377-1.171-4.897c.531-1.581 1.811-3.175 3.152-2.766z"
        opacity="0.4"
      ></path>
      <path
        fill="#21C6DE"
        d="M133.549 101.659a.39.39 0 01-.304-.156.236.236 0 01-.058-.23c.109-.352 1.114-.639 1.229-.671a.058.058 0 01.039-.001.056.056 0 01.031.023.062.062 0 01.011.037.062.062 0 01-.011.037c-.179.341-.534.916-.899.958l-.038.003zm.742-.878c-.397.128-.915.348-.96.533a.1.1 0 00.029.099.26.26 0 00.23.109c.186-.023.445-.297.701-.741z"
      ></path>
      <path
        fill="#21C6DE"
        d="M133.974 100.793a1.183 1.183 0 01-.838-.236.237.237 0 010-.297.358.358 0 01.259-.16c.416-.051 1.047.492 1.072.515a.056.056 0 01.02.028.074.074 0 01.003.036.067.067 0 01-.015.033.063.063 0 01-.03.021 1.595 1.595 0 01-.471.06zm-.508-.558h-.045a.218.218 0 00-.163.099c-.048.073-.032.111 0 .137.124.163.694.223 1.04.16a1.727 1.727 0 00-.832-.396zM107.536 112.206a1.087 1.087 0 01-.701-.179.393.393 0 01-.125-.319.227.227 0 01.036-.107.23.23 0 01.083-.075c.355-.195 1.507.393 1.638.463a.076.076 0 01.029.03.068.068 0 01.006.04.07.07 0 01-.017.038.075.075 0 01-.037.02 5.078 5.078 0 01-.912.089zm-.515-.597a.258.258 0 00-.128.025.076.076 0 00-.033.031.082.082 0 00-.012.043.25.25 0 00.08.217c.176.16.64.185 1.28.08a3.67 3.67 0 00-1.187-.396z"
      ></path>
      <path
        fill="#21C6DE"
        d="M108.435 112.113h-.028c-.346-.156-1.028-.779-.96-1.105 0-.076.067-.175.256-.195a.51.51 0 01.38.119c.362.303.429 1.079.432 1.114a.07.07 0 01-.006.035.078.078 0 01-.022.026.063.063 0 01-.025.009.063.063 0 01-.027-.003zm-.691-1.172h-.038c-.128 0-.135.064-.138.08-.032.195.432.687.784.898a1.597 1.597 0 00-.371-.892.365.365 0 00-.237-.095v.009zM118.474 46.315l.3 1.05c.042.08-.054.163-.192.163H106.49c-.106 0-.196-.05-.202-.118l-.106-1.047c0-.074.084-.135.202-.135h11.901a.215.215 0 01.189.087z"
      ></path>
      <path
        fill="#fff"
        d="M118.474 46.315l.3 1.05c.042.08-.054.163-.192.163H106.49c-.106 0-.196-.05-.202-.118l-.106-1.047c0-.074.084-.135.202-.135h11.901a.215.215 0 01.189.087z"
        opacity="0.3"
      ></path>
      <path
        fill="#263238"
        d="M116.877 47.656h.32c.061 0 .109-.032.105-.073l-.15-1.364c0-.038-.058-.074-.122-.074h-.32c-.064 0-.112.035-.105.074l.147 1.364c.006.041.048.073.125.073zM107.386 47.656h.32c.064 0 .112-.032.108-.073l-.15-1.364c0-.038-.061-.074-.122-.074h-.32c-.064 0-.112.035-.108.074l.15 1.364c.003.041.058.073.122.073zM112.131 47.656h.32c.064 0 .112-.032.109-.073l-.15-1.364c0-.038-.058-.074-.122-.074h-.32c-.064 0-.112.035-.106.074l.138 1.373c0 .032.067.064.131.064z"
      ></path>
      <path
        fill="#21C6DE"
        d="M100.058 59.672a29.46 29.46 0 01-17.024 1.294 29.422 29.422 0 01-14.875-8.364A29.333 29.333 0 0160.446 37.4a29.304 29.304 0 012.048-16.919 29.37 29.37 0 0111.12-12.93 29.449 29.449 0 0132.668.72 29.363 29.363 0 0110.538 13.408 29.31 29.31 0 01-7.081 31.843 29.415 29.415 0 01-9.681 6.15z"
        opacity="0.2"
      ></path>
      <path
        fill="#fff"
        d="M94.78 4.104L71.716 56.392a29.027 29.027 0 01-6.813-7.244L84.826 3.983c3.3-.53 6.668-.49 9.955.121zM111.178 13.176l-21.687 49.16A29.414 29.414 0 0176.5 59.328l23.68-53.684a29.448 29.448 0 0110.999 7.532z"
        opacity="0.1"
      ></path>
      <path
        fill="#21C6DE"
        d="M65.242 13.198A31.286 31.286 0 0180.329 3.106a31.338 31.338 0 0118.162-.025 31.29 31.29 0 0115.115 10.051 31.193 31.193 0 016.973 16.74 31.17 31.17 0 01-3.519 17.784 31.255 31.255 0 01-12.824 12.837 31.335 31.335 0 01-34.598-3.354 31.19 31.19 0 01-4.397-43.941zm46.438 37.933a28.623 28.623 0 003.079-31.707A28.694 28.694 0 00102.95 7.672a28.766 28.766 0 00-31.756 3.17 28.667 28.667 0 00-9.244 13.853 28.62 28.62 0 00.024 16.644 28.668 28.668 0 009.284 13.827 28.773 28.773 0 0031.77 3.077 28.718 28.718 0 008.652-7.112z"
      ></path>
      <path
        fill="#21C6DE"
        d="M114.442 51.023c3.081 1.836 6.012 3.855 8.892 5.938a202.56 202.56 0 018.448 6.477c2.762 2.227 5.472 4.517 8.087 6.922 1.31 1.201 2.59 2.434 3.84 3.699 1.254 1.277 2.486 2.555 3.648 3.941a1.797 1.797 0 01-1.034 2.917 1.805 1.805 0 01-1.206-.183c-1.6-.862-3.098-1.814-4.592-2.788a106.693 106.693 0 01-4.394-3.034c-2.88-2.083-5.667-4.277-8.397-6.542a206.156 206.156 0 01-8.032-6.989c-2.614-2.408-5.177-4.874-7.59-7.525a1.847 1.847 0 011.051-3.073c.439-.075.891.01 1.272.24h.007z"
      ></path>
      <path
        fill="#FFC3BD"
        d="M117.885 50.148l-3.091.47 2.211 1.935s1.747-.64 1.92-1.82l-1.04-.585z"
      ></path>
      <path
        fill="#FFC3BD"
        d="M113.123 52.39l1.943 1.52 2.371-1.546-2.643-1.74-1.671 1.766z"
      ></path>
      <path
        fill="#21C6DE"
        d="M98.509 55.753a4.058 4.058 0 013.747-2.66h25.616a3.034 3.034 0 012.362.996 3.02 3.02 0 01.749 2.447l-6.618 55.421a4.027 4.027 0 01-3.926 3.427h-81.28a3.022 3.022 0 01-3.002-2.125 3.01 3.01 0 01-.106-1.302l5.55-46.564a4.017 4.017 0 011.331-2.434 4.03 4.03 0 012.594-.993h44.23a9.506 9.506 0 005.341-1.753 9.478 9.478 0 003.412-4.46z"
      ></path>
      <path
        fill="#F0F0F0"
        d="M37.514 112.832h84.931l4.838-57.04H42.355l-4.841 57.04z"
      ></path>
      <path
        fill="#E0E0E0"
        d="M37.514 112.832h84.931l3.501-57.04h-83.59l-4.842 57.04z"
      ></path>
      <path
        fill="#F0F0F0"
        d="M37.514 112.832h84.931l2.918-58.851H40.435l-2.921 58.851z"
      ></path>
      <path
        fill="#E0E0E0"
        d="M37.514 112.832h84.931l1.155-58.851H40.435l-2.921 58.851z"
      ></path>
      <path
        fill="#F0F0F0"
        d="M37.514 112.832h84.931l.505-60.448H38.022l-.508 60.448z"
      ></path>
      <path
        fill="#E0E0E0"
        d="M37.514 112.832h84.931l-1.744-59.305h-84.38l1.193 59.305z"
      ></path>
      <path
        fill="#F0F0F0"
        d="M37.514 112.832h84.931l-2.522-58.851H34.995l2.519 58.851z"
      ></path>
      <path
        fill="#E0E0E0"
        d="M37.514 112.832h84.931l-4.016-57.963H33.501l4.013 57.963z"
      ></path>
      <path
        fill="#F0F0F0"
        d="M37.514 112.832h84.931l-4.656-57.468H32.861l4.653 57.468z"
      ></path>
      <path
        fill="#21C6DE"
        d="M80.045 59.353a2.76 2.76 0 011.806-2.555 2.771 2.771 0 011.09-.17h25.616a4.485 4.485 0 012.704 1.04 4.47 4.47 0 011.501 2.474l10.121 51.745c.378 1.939-.889 3.513-2.832 3.513h-81.28c-1.945 0-3.84-1.574-4.208-3.513l-8.349-42.658c-.377-1.939.89-3.513 2.833-3.513H73.28c3.84 0 6.634-2.639 6.765-6.363z"
      ></path>
      <path
        fill="#000"
        d="M80.045 59.353a2.76 2.76 0 011.806-2.555 2.771 2.771 0 011.09-.17h25.616a4.485 4.485 0 012.704 1.04 4.47 4.47 0 011.501 2.474l10.121 51.745c.378 1.939-.889 3.513-2.832 3.513h-81.28c-1.945 0-3.84-1.574-4.208-3.513l-8.349-42.658c-.377-1.939.89-3.513 2.833-3.513H73.28c3.84 0 6.634-2.639 6.765-6.363z"
        opacity="0.2"
      ></path>
    </svg>