<svg width="135" height="58" viewBox="0 0 135 58" fill="none" xmlns="http://www.w3.org/2000/svg">
<path d="M64.6355 37.8164C59.0559 37.8164 54.5003 33.2567 54.5003 27.6931C54.5003 22.0876 59.0559 17.5279 64.6355 17.5279C70.236 17.5279 74.8125 22.1085 74.8125 27.6931C74.8125 33.2776 70.236 37.8164 64.6355 37.8164ZM64.6355 44.3213C73.8094 44.3213 81.3116 36.8543 81.3116 27.7558C81.3116 18.5528 73.8094 11.0439 64.6564 11.0439C55.5033 11.0439 48.043 18.5528 48.043 27.7558C48.043 36.8752 55.5033 44.3213 64.6355 44.3213Z" fill="white"/>
<path d="M117.756 37.293H114.831V18.0503H117.714C124.046 18.0503 127.891 21.7106 127.891 27.7135C127.87 33.6955 124.046 37.293 117.756 37.293ZM117.714 11.671L108.415 11.6919V43.7142H117.714C128.059 43.7142 134.37 37.6695 134.37 27.7344C134.37 17.7366 128.059 11.65 117.714 11.671Z" fill="white"/>
<path d="M91.9061 37.3354V11.6924H85.4697V43.7147H104.758V37.3354H91.9061Z" fill="white"/>
<path d="M35.3794 3.09556V23.3213H19.6437V8.61738L10.8877 11.6711V43.7144H19.6437V32.0223H35.3794V43.7144H44.1145V0L35.3794 3.09556Z" fill="white"/>
<path d="M126.387 54.1309V57.4356C126.387 57.8121 126.157 57.9794 125.676 57.9794C125.196 57.9794 124.966 57.7911 124.966 57.4356V49.3411C124.966 48.9855 125.196 48.7973 125.676 48.7973C126.157 48.7973 126.387 48.9855 126.387 49.3411V52.5622L133.074 48.9646C133.262 48.86 133.45 48.7973 133.617 48.7973C133.826 48.7973 133.993 48.8391 134.098 48.9437C134.223 49.0274 134.265 49.1738 134.265 49.3411C134.265 49.4248 134.244 49.5084 134.202 49.613C134.161 49.6967 134.056 49.7803 133.931 49.864L127.223 53.336L134.056 56.9127C134.223 56.9963 134.328 57.08 134.39 57.1637C134.453 57.2473 134.474 57.3519 134.474 57.4565C134.474 57.6238 134.411 57.7702 134.286 57.8539C134.161 57.9585 133.973 58.0003 133.743 58.0003C133.68 58.0003 133.596 58.0003 133.513 57.9794C133.429 57.9585 133.325 57.9166 133.199 57.833L126.387 54.1309ZM112.406 48.7973C112.553 48.7973 112.678 48.8182 112.783 48.86C112.887 48.9019 112.992 48.9855 113.117 49.0692L120.995 56.0342V49.3202C120.995 48.9646 121.225 48.7764 121.706 48.7764C122.186 48.7764 122.416 48.9646 122.416 49.3202V57.4356C122.416 57.8121 122.165 57.9794 121.664 57.9794C121.518 57.9794 121.392 57.9585 121.288 57.8957C121.183 57.833 121.079 57.7702 120.974 57.6657L113.117 50.7006V57.4356C113.117 57.8121 112.887 57.9794 112.406 57.9794C111.947 57.9794 111.717 57.7911 111.717 57.4356V49.362C111.675 48.9855 111.905 48.7973 112.406 48.7973ZM100.976 54.4864H106.284L103.609 50.3451L100.976 54.4864ZM106.91 55.4904H100.307L98.9694 57.6029C98.8022 57.8539 98.5724 57.9794 98.2798 57.9794C98.0708 57.9794 97.8828 57.9376 97.7574 57.833C97.632 57.7493 97.5693 57.6029 97.5693 57.4356C97.5693 57.3728 97.5693 57.3101 97.5902 57.2473C97.6111 57.1846 97.6529 57.1218 97.7156 57.0382L102.898 49.1529C102.982 49.0274 103.086 48.9437 103.212 48.8809C103.337 48.8182 103.483 48.7973 103.63 48.7973C103.943 48.7973 104.173 48.9228 104.319 49.1529L109.502 57.0173C109.564 57.1009 109.627 57.1846 109.648 57.2473C109.669 57.3101 109.69 57.3728 109.69 57.4356C109.69 57.6029 109.627 57.7493 109.502 57.833C109.376 57.9166 109.188 57.9794 108.979 57.9794C108.708 57.9794 108.478 57.8539 108.311 57.6029L106.91 55.4904ZM94.6228 51.0562C94.6228 50.3032 93.9541 49.9267 92.6166 49.9267H86.9952C86.9325 49.9267 86.8908 49.9477 86.8908 50.0104V52.8341H92.7211C93.9958 52.8341 94.6228 52.4785 94.6228 51.7673V51.0562ZM94.7691 54.9466C94.7691 54.2145 94.1003 53.838 92.7629 53.838H86.8908V56.7244C86.8908 56.7872 86.9325 56.8081 86.9952 56.8081H92.7629C94.1003 56.8081 94.7691 56.4734 94.7691 55.7832V54.9466ZM96.1692 55.9296C96.1692 57.2473 95.0407 57.9166 92.8047 57.9166H86.0966C85.6787 57.9166 85.4697 57.7493 85.4697 57.4147V49.3829C85.4697 49.0483 85.6787 48.8809 86.0966 48.8809H92.5957C94.8735 48.8809 96.0229 49.5921 96.0229 51.0353V51.7883C96.0229 52.4785 95.6676 52.9805 94.9362 53.336C95.7512 53.7125 96.1692 54.2563 96.1692 55.0302V55.9296Z" fill="white"/>
<path d="M126.387 54.1309V57.4356C126.387 57.8121 126.157 57.9794 125.676 57.9794C125.196 57.9794 124.966 57.7911 124.966 57.4356V49.3411C124.966 48.9855 125.196 48.7973 125.676 48.7973C126.157 48.7973 126.387 48.9855 126.387 49.3411V52.5622L133.074 48.9646C133.262 48.86 133.45 48.7973 133.617 48.7973C133.826 48.7973 133.993 48.8391 134.098 48.9437C134.223 49.0274 134.265 49.1738 134.265 49.3411C134.265 49.4248 134.244 49.5084 134.202 49.613C134.161 49.6967 134.056 49.7803 133.931 49.864L127.223 53.336L134.056 56.9127C134.223 56.9963 134.328 57.08 134.39 57.1637C134.453 57.2473 134.474 57.3519 134.474 57.4565C134.474 57.6238 134.411 57.7702 134.286 57.8539C134.161 57.9585 133.973 58.0003 133.743 58.0003C133.68 58.0003 133.596 58.0003 133.513 57.9794C133.429 57.9585 133.325 57.9166 133.199 57.833L126.387 54.1309ZM112.406 48.7973C112.553 48.7973 112.678 48.8182 112.783 48.86C112.887 48.9019 112.992 48.9855 113.117 49.0692L120.995 56.0342V49.3202C120.995 48.9646 121.225 48.7764 121.706 48.7764C122.186 48.7764 122.416 48.9646 122.416 49.3202V57.4356C122.416 57.8121 122.165 57.9794 121.664 57.9794C121.518 57.9794 121.392 57.9585 121.288 57.8957C121.183 57.833 121.079 57.7702 120.974 57.6657L113.117 50.7006V57.4356C113.117 57.8121 112.887 57.9794 112.406 57.9794C111.947 57.9794 111.717 57.7911 111.717 57.4356V49.362C111.675 48.9855 111.905 48.7973 112.406 48.7973ZM100.976 54.4864H106.284L103.609 50.3451L100.976 54.4864ZM106.91 55.4904H100.307L98.9694 57.6029C98.8022 57.8539 98.5724 57.9794 98.2798 57.9794C98.0708 57.9794 97.8828 57.9376 97.7574 57.833C97.632 57.7493 97.5693 57.6029 97.5693 57.4356C97.5693 57.3728 97.5693 57.3101 97.5902 57.2473C97.6111 57.1846 97.6529 57.1218 97.7156 57.0382L102.898 49.1529C102.982 49.0274 103.086 48.9437 103.212 48.8809C103.337 48.8182 103.483 48.7973 103.63 48.7973C103.943 48.7973 104.173 48.9228 104.319 49.1529L109.502 57.0173C109.564 57.1009 109.627 57.1846 109.648 57.2473C109.669 57.3101 109.69 57.3728 109.69 57.4356C109.69 57.6029 109.627 57.7493 109.502 57.833C109.376 57.9166 109.188 57.9794 108.979 57.9794C108.708 57.9794 108.478 57.8539 108.311 57.6029L106.91 55.4904ZM94.6228 51.0562C94.6228 50.3032 93.9541 49.9267 92.6166 49.9267H86.9952C86.9325 49.9267 86.8908 49.9477 86.8908 50.0104V52.8341H92.7211C93.9958 52.8341 94.6228 52.4785 94.6228 51.7673V51.0562ZM94.7691 54.9466C94.7691 54.2145 94.1003 53.838 92.7629 53.838H86.8908V56.7244C86.8908 56.7872 86.9325 56.8081 86.9952 56.8081H92.7629C94.1003 56.8081 94.7691 56.4734 94.7691 55.7832V54.9466ZM96.1692 55.9296C96.1692 57.2473 95.0407 57.9166 92.8047 57.9166H86.0966C85.6787 57.9166 85.4697 57.7493 85.4697 57.4147V49.3829C85.4697 49.0483 85.6787 48.8809 86.0966 48.8809H92.5957C94.8735 48.8809 96.0229 49.5921 96.0229 51.0353V51.7883C96.0229 52.4785 95.6676 52.9805 94.9362 53.336C95.7512 53.7125 96.1692 54.2563 96.1692 55.0302V55.9296Z" fill="white"/>
<path fill-rule="evenodd" clip-rule="evenodd" d="M3.69883 4.03711C5.74678 4.03711 7.39767 5.68947 7.39767 7.73924C7.39767 9.789 5.74678 11.4414 3.69883 11.4414C1.65089 11.4414 0 9.789 0 7.73924C0 5.68947 1.65089 4.03711 3.69883 4.03711Z" fill="white"/>
<path d="M91.9061 37.3354V11.6924H85.4697V43.7147H104.758V37.3354H91.9061Z" fill="white"/>
<path d="M0.438477 43.7557H6.95845V13.3857L0.438477 15.6865V43.7557Z" fill="white"/>
</svg>
