<svg width="135" height="59" viewBox="0 0 135 59" fill="none" xmlns="http://www.w3.org/2000/svg">
<path d="M64.6355 37.8161C59.0559 37.8161 54.5003 33.2565 54.5003 27.6928C54.5003 22.0873 59.0559 17.5277 64.6355 17.5277C70.236 17.5277 74.8125 22.1082 74.8125 27.6928C74.8125 33.2774 70.236 37.8161 64.6355 37.8161ZM64.6355 44.321C73.8094 44.321 81.3116 36.854 81.3116 27.7556C81.3116 18.5525 73.8094 11.0437 64.6564 11.0437C55.5033 11.0437 48.043 18.5525 48.043 27.7556C48.043 36.8749 55.5033 44.321 64.6355 44.321Z" fill="#00102A"/>
<path d="M117.757 37.2933H114.831V18.0506H117.715C124.047 18.0506 127.892 21.7109 127.892 27.7137C127.871 33.6957 124.047 37.2933 117.757 37.2933ZM117.715 11.6712L108.416 11.6921V43.7145H117.715C128.059 43.7145 134.37 37.6697 134.37 27.7347C134.37 17.7368 128.059 11.6503 117.715 11.6712Z" fill="#00102A"/>
<path d="M91.9066 37.3351V11.6921H85.4702V43.7145H104.759V37.3351H91.9066Z" fill="#00102A"/>
<path d="M35.3794 3.09556V23.3213H19.6437V8.61738L10.8877 11.6711V43.7144H19.6437V32.0223H35.3794V43.7144H44.1145V0L35.3794 3.09556Z" fill="#00102A"/>
<path d="M126.387 54.1306V57.4353C126.387 57.8118 126.157 57.9791 125.677 57.9791C125.196 57.9791 124.966 57.7909 124.966 57.4353V49.3409C124.966 48.9853 125.196 48.797 125.677 48.797C126.157 48.797 126.387 48.9853 126.387 49.3409V52.5619L133.074 48.9644C133.262 48.8598 133.451 48.797 133.618 48.797C133.827 48.797 133.994 48.8389 134.098 48.9434C134.224 49.0271 134.266 49.1735 134.266 49.3409C134.266 49.4245 134.245 49.5082 134.203 49.6128C134.161 49.6964 134.057 49.7801 133.931 49.8637L127.223 53.3358L134.057 56.9124C134.224 56.9961 134.328 57.0798 134.391 57.1634C134.454 57.2471 134.475 57.3517 134.475 57.4562C134.475 57.6236 134.412 57.77 134.286 57.8537C134.161 57.9582 133.973 58.0001 133.743 58.0001C133.68 58.0001 133.597 58.0001 133.513 57.9791C133.43 57.9582 133.325 57.9164 133.2 57.8327L126.387 54.1306ZM112.407 48.797C112.553 48.797 112.679 48.818 112.783 48.8598C112.888 48.9016 112.992 48.9853 113.117 49.0689L120.996 56.034V49.3199C120.996 48.9644 121.226 48.7761 121.706 48.7761C122.187 48.7761 122.417 48.9644 122.417 49.3199V57.4353C122.417 57.8118 122.166 57.9791 121.664 57.9791C121.518 57.9791 121.393 57.9582 121.288 57.8955C121.184 57.8327 121.079 57.77 120.975 57.6654L113.117 50.7004V57.4353C113.117 57.8118 112.888 57.9791 112.407 57.9791C111.947 57.9791 111.717 57.7909 111.717 57.4353V49.3618C111.676 48.9853 111.905 48.797 112.407 48.797ZM100.976 54.4862H106.284L103.609 50.3448L100.976 54.4862ZM106.911 55.4901H100.307L98.9699 57.6027C98.8027 57.8536 98.5729 57.9791 98.2803 57.9791C98.0713 57.9791 97.8833 57.9373 97.7579 57.8327C97.6325 57.7491 97.5698 57.6027 97.5698 57.4353C97.5698 57.3726 97.5698 57.3098 97.5907 57.2471C97.6116 57.1843 97.6534 57.1216 97.7161 57.0379L102.899 49.1526C102.982 49.0271 103.087 48.9435 103.212 48.8807C103.337 48.818 103.484 48.797 103.63 48.797C103.943 48.797 104.173 48.9225 104.32 49.1526L109.502 57.017C109.565 57.1007 109.628 57.1843 109.648 57.2471C109.669 57.3098 109.69 57.3726 109.69 57.4353C109.69 57.6027 109.628 57.7491 109.502 57.8327C109.377 57.9164 109.189 57.9791 108.98 57.9791C108.708 57.9791 108.478 57.8536 108.311 57.6027L106.911 55.4901ZM94.6233 51.056C94.6233 50.303 93.9545 49.9265 92.6171 49.9265H86.9957C86.933 49.9265 86.8912 49.9474 86.8912 50.0102V52.8338H92.7216C93.9963 52.8338 94.6233 52.4782 94.6233 51.7671V51.056ZM94.7695 54.9463C94.7695 54.2143 94.1008 53.8378 92.7634 53.8378H86.8912V56.7242C86.8912 56.7869 86.933 56.8079 86.9957 56.8079H92.7634C94.1008 56.8079 94.7695 56.4732 94.7695 55.783V54.9463ZM96.1697 55.9294C96.1697 57.2471 95.0412 57.9164 92.8052 57.9164H86.0971C85.6792 57.9164 85.4702 57.7491 85.4702 57.4144V49.3827C85.4702 49.048 85.6792 48.8807 86.0971 48.8807H92.5962C94.874 48.8807 96.0234 49.5918 96.0234 51.035V51.788C96.0234 52.4782 95.6681 52.9802 94.9367 53.3358C95.7517 53.7123 96.1697 54.2561 96.1697 55.03V55.9294Z" fill="#00102A"/>
<path d="M126.387 54.1306V57.4353C126.387 57.8118 126.157 57.9791 125.677 57.9791C125.196 57.9791 124.966 57.7909 124.966 57.4353V49.3409C124.966 48.9853 125.196 48.797 125.677 48.797C126.157 48.797 126.387 48.9853 126.387 49.3409V52.5619L133.074 48.9644C133.262 48.8598 133.451 48.797 133.618 48.797C133.827 48.797 133.994 48.8389 134.098 48.9434C134.224 49.0271 134.266 49.1735 134.266 49.3409C134.266 49.4245 134.245 49.5082 134.203 49.6128C134.161 49.6964 134.057 49.7801 133.931 49.8637L127.223 53.3358L134.057 56.9124C134.224 56.9961 134.328 57.0798 134.391 57.1634C134.454 57.2471 134.475 57.3517 134.475 57.4562C134.475 57.6236 134.412 57.77 134.286 57.8537C134.161 57.9582 133.973 58.0001 133.743 58.0001C133.68 58.0001 133.597 58.0001 133.513 57.9791C133.43 57.9582 133.325 57.9164 133.2 57.8327L126.387 54.1306ZM112.407 48.797C112.553 48.797 112.679 48.818 112.783 48.8598C112.888 48.9016 112.992 48.9853 113.117 49.0689L120.996 56.034V49.3199C120.996 48.9644 121.226 48.7761 121.706 48.7761C122.187 48.7761 122.417 48.9644 122.417 49.3199V57.4353C122.417 57.8118 122.166 57.9791 121.664 57.9791C121.518 57.9791 121.393 57.9582 121.288 57.8955C121.184 57.8327 121.079 57.77 120.975 57.6654L113.117 50.7004V57.4353C113.117 57.8118 112.888 57.9791 112.407 57.9791C111.947 57.9791 111.717 57.7909 111.717 57.4353V49.3618C111.676 48.9853 111.905 48.797 112.407 48.797ZM100.976 54.4862H106.284L103.609 50.3448L100.976 54.4862ZM106.911 55.4901H100.307L98.9699 57.6027C98.8027 57.8536 98.5729 57.9791 98.2803 57.9791C98.0713 57.9791 97.8833 57.9373 97.7579 57.8327C97.6325 57.7491 97.5698 57.6027 97.5698 57.4353C97.5698 57.3726 97.5698 57.3098 97.5907 57.2471C97.6116 57.1843 97.6534 57.1216 97.7161 57.0379L102.899 49.1526C102.982 49.0271 103.087 48.9435 103.212 48.8807C103.337 48.818 103.484 48.797 103.63 48.797C103.943 48.797 104.173 48.9225 104.32 49.1526L109.502 57.017C109.565 57.1007 109.628 57.1843 109.648 57.2471C109.669 57.3098 109.69 57.3726 109.69 57.4353C109.69 57.6027 109.628 57.7491 109.502 57.8327C109.377 57.9164 109.189 57.9791 108.98 57.9791C108.708 57.9791 108.478 57.8536 108.311 57.6027L106.911 55.4901ZM94.6233 51.056C94.6233 50.303 93.9545 49.9265 92.6171 49.9265H86.9957C86.933 49.9265 86.8912 49.9474 86.8912 50.0102V52.8338H92.7216C93.9963 52.8338 94.6233 52.4782 94.6233 51.7671V51.056ZM94.7695 54.9463C94.7695 54.2143 94.1008 53.8378 92.7634 53.8378H86.8912V56.7242C86.8912 56.7869 86.933 56.8079 86.9957 56.8079H92.7634C94.1008 56.8079 94.7695 56.4732 94.7695 55.783V54.9463ZM96.1697 55.9294C96.1697 57.2471 95.0412 57.9164 92.8052 57.9164H86.0971C85.6792 57.9164 85.4702 57.7491 85.4702 57.4144V49.3827C85.4702 49.048 85.6792 48.8807 86.0971 48.8807H92.5962C94.874 48.8807 96.0234 49.5918 96.0234 51.035V51.788C96.0234 52.4782 95.6681 52.9802 94.9367 53.3358C95.7517 53.7123 96.1697 54.2561 96.1697 55.03V55.9294Z" fill="#00102A" stroke="#00102A" stroke-width="0.216" stroke-miterlimit="2.6131"/>
<path fill-rule="evenodd" clip-rule="evenodd" d="M3.69883 4.03687C5.74678 4.03687 7.39767 5.68923 7.39767 7.73899C7.39767 9.78876 5.74678 11.4411 3.69883 11.4411C1.65089 11.4411 0 9.78876 0 7.73899C0 5.68923 1.65089 4.03687 3.69883 4.03687Z" fill="#00102A"/>
<path d="M91.9066 37.3351V11.6921H85.4702V43.7145H104.759V37.3351H91.9066Z" fill="#00102A"/>
<path d="M0.438965 43.7562H6.95894V13.3862L0.438965 15.687V43.7562Z" fill="#00102A"/>
</svg>
